<svg width="20" height="20" viewBox="0 0 20 20" fill="none" xmlns="http://www.w3.org/2000/svg">
<path fill-rule="evenodd" clip-rule="evenodd" d="M10 4C11.44 4 12.8 4.51 13.89 5.44V4.61C13.89 4.33 14.11 4.11 14.39 4.11C14.67 4.11 14.89 4.33 14.89 4.61V6.61C14.89 6.89 14.67 7.11 14.39 7.11H12.39C12.11 7.11 11.89 6.89 11.89 6.61C11.89 6.33 12.11 6.11 12.39 6.11H13.11C12.23 5.4 11.15 5 10 5C7.24 5 5 7.24 5 10C5 12.76 7.24 15 10 15C12.76 15 15 12.76 15 10C15 9.72 15.22 9.5 15.5 9.5C15.78 9.5 16 9.72 16 10C16 13.31 13.31 16 10 16C6.69 16 4 13.31 4 10C4 6.69 6.69 4 10 4Z" fill="#BDBEC0"/>
</svg>
