<svg width="14" height="14" viewBox="0 0 14 14" fill="none" xmlns="http://www.w3.org/2000/svg">
<path fill-rule="evenodd" clip-rule="evenodd" d="M14 7C14 10.866 10.866 14 7 14C3.13401 14 0 10.866 0 7C0 3.13401 3.13401 0 7 0C10.866 0 14 3.13401 14 7Z" fill="#34C759"/>
<path fill-rule="evenodd" clip-rule="evenodd" d="M5.64693 9.35L3.64979 7.35C3.45007 7.15 3.45007 6.84 3.64979 6.64C3.8495 6.44 4.15906 6.44 4.35877 6.64L6.00642 8.29L9.64123 4.65C9.84094 4.45 10.1505 4.45 10.3502 4.65C10.5499 4.85 10.5499 5.16 10.3502 5.36L6.34593 9.35C6.24608 9.45 6.11626 9.5 5.99643 9.5C5.86662 9.5 5.7368 9.45 5.64693 9.35Z" fill="white"/>
</svg>
